
<global>
amp_veltrack=0
ampeg_release=0.50
</global>

<group>
group_label=Group_0-90
lpc_hicc1=90
lpc_locc1=0

<region>
hikey=a5
hivel=127
lokey=g#5
lovel=1
lpc=sk3kQYP5j8Ik3bpCOsCjwvnwekLBpRHCpvRVQTm5WsCSHI9ApNSNQBkqccFJ38dB2/vOwWVusEELqCTB6tP0P9fgVED1rUbAHgehQL5ehsCyRJlA2IRKwPYKVEBKgNU9
lpc_rms=-12.71
pitch_keycenter=a5
sample=Clarinet_bends_MF_A5.opus
</region>

<region>
hivel=127
key=b4
lovel=1
lpc=E3v1Qe05kMLEqJxCMEyEwifaW0IJMiLCZT/pQSJxw8FQFJhB84uKwYbVhkEuoU/By84jQU5bKsDEunXA6zQzQAaxsb5Z2u27JZs6QIb488C2ny9BaKEEwdpHUT8kFxNA
lpc_rms=-16.40
sample=Clarinet_bends_MF_B4.opus
</region>

<region>
hikey=b5
hivel=127
lokey=a#5
lovel=1
lpc=7qqBQTkN/sHrhB5CuygLwrs65EH6TKXBeouEQfrBYsEjOIRBM4Ffwci9G0Ev1LG/CvAjwCozoEAHCoq/noVwwBQVBUG60L3AIZWMQJfbC8CkX45A2JyDwBlcr0C26YPA
lpc_rms=-15.52
pitch_keycenter=b5
sample=Clarinet_bends_MF_B5.opus
</region>

<region>
hikey=c#5
hivel=127
lokey=c5
lovel=1
lpc=AOYeQgExyMIprN9CP6iiwg6UU0LI9+DBzFXFQNWthcA7Th9BepvvwHBn7EAoTVTBQDGRQfivgcEGQRVBVqhUQFDipcFgLOpBPrGYwf2CoD+Rvk5BCF9hwV7/30Coqym/
lpc_rms=-15.96
pitch_keycenter=c#5
sample=Clarinet_bends_MF_C#5.opus
</region>

<region>
hikey=c#6
hivel=127
lokey=c6
lovel=1
lpc=/XkGQeJ9csEa5pVBWW1owS9yN0HxZrfAE7a2QL25esCnTMJAWfcswB3a1T/skq0/EJDmP2+pHcAueslAySuuwAIQ5kAjNnLAPQwxQEKAMT/cISa93KUYQB25WcDwsCZA
lpc_rms=-15.46
pitch_keycenter=c#6
sample=Clarinet_bends_MF_C#6.opus
</region>

<region>
hikey=d#5
hivel=127
lokey=d5
lovel=1
lpc=MgpeQSLeJMJu8GhC7A9Wwr0HFkJfQ53BgartQHaA98AF1oVBwt2wwXKQlkFPgf7AhVlCwKnZ5UBa5VHARoCTwCVwR0GLgWHBWMHEQDMhqECfBCHBV4kAQUDgjcAOJeg/
lpc_rms=-19.52
pitch_keycenter=d#5
sample=Clarinet_bends_MF_D#5.opus
</region>

<region>
hikey=d#6
hivel=127
lokey=d6
lovel=1
lpc=nPpfQaGOqcFyKJpBur/NwCOUd0AVvNe/074FQcFz7cBmqStB/O1WwEQO0z84VHtAhEciQCa4AsAPHKpAdkkHP65Apj8mtLU/SDxdQAAZc8C+u0O/WgYFQTgYxsCPBjxA
lpc_rms=-12.40
pitch_keycenter=d#6
sample=Clarinet_bends_MF_D#6.opus
</region>

<region>
hikey=f5
hivel=127
lokey=e5
lovel=1
lpc=+SHYQS1yocLecOdCxhrZwsCIoUIrLi/C31utQHhpNEEckby/R8UbwXJeVUEIU1/BWcqIQdkZpcEMTstBGr3swZiK6kFpzpXBvXmqPyOzPkEDmm7Bb/RfQePmFMEQrnNA
lpc_rms=-13.17
pitch_keycenter=f5
sample=Clarinet_bends_MF_F5.opus
</region>

<region>
hikey=f6
hivel=127
lokey=e6
lovel=1
lpc=zZFTQVFOscHBwt1BgT6lwYL7n0FBpDjB9Ag9QSX9s8AtxBFBDqo+wJo+RUC9bI9AdSBqvuPksD8SUr5A4gCPwGQBGEES9jDB3sdAQYka8sD3X+VArKfDwL4McEDoUYW/
lpc_rms=-10.68
pitch_keycenter=f6
sample=Clarinet_bends_MF_F6.opus
</region>

<region>
hikey=g5
hivel=127
lokey=f#5
lovel=1
lpc=5zFiQWLbBsJUICNCo78EwmSGokGtRqrAj7oKwPKNZb/49h1BHJFVwYFbPkEvjwDBtz3iQNGiAsE01TdBc61IwRsSMkEvrMXA2vf7P0EYuT9vTk+/y5tpvwCrGT+vMME/
lpc_rms=-16.73
pitch_keycenter=g5
sample=Clarinet_bends_MF_G5.opus
</region>

<region>
hikey=C7
hivel=127
lokey=f#6
lovel=1
lpc=SIUJQXtUYMGYa3NBA6kOwV5RyEDjmuu/6mFYQCjiJsCjkpZAOno9v28XKUDj+BG/DBKjQNBPf8DfUvlApPKewH4owj9mCUBAI52wvp9baT7khWQ/zhyWP2FJnL/ldwBA
lpc_rms=-15.66
pitch_keycenter=G6
sample=Clarinet_bends_MF_G6.opus
</region>
</group>

<group>
group_label=Group_91-127
lpc_hicc1=127
lpc_locc1=91

<region>
hikey=f6
hivel=127
lokey=e6
lovel=1
lpc=5rIaQaT6b8FuCpJBB90wwVueHkFPJRHAorxnQDyRhr8tx/ZAtzdqwOjgskBli+87xcx4QAs3Fr8hfatAJfKpv3chakBPZRjAsoSFQJKvpL9aBtg/kOmAv2uEmj/bVJ29
lpc_rms=-9.58
pitch_keycenter=f6
sample=Clarinet_bends_FF_F6.opus
</region>

<region>
hikey=C7
hivel=127
lokey=f#6
lovel=1
lpc=N1AUQZcTTcFM5YNBxmcPwZo6G0FNSbu/kop+QP5KvD9aqKxAek0Xv5RszUCtRR86FsmxQI4PrT5yC+ZAVse8wOb8BEG43oW/aL3UPs8fSUDpeSvAxLGJQBnMKMDqHNs/
lpc_rms=-11.16
pitch_keycenter=G6
sample=Clarinet_bends_FF_G6.opus
</region>

<region>
hikey=a5
hivel=127
lokey=g#5
lovel=1
lpc=63FOQQ7r98Gc7SJCXjMRwtLv20F/SoXB8FIhQXqwt8BxuFhA3G6TvZqjxz9bZiDAhHyMQF2Qn8BcMuVARxXSwCeYqEDz+6C/KUE/PzrHEsA2AKdA0LNzwHNa4D9FHEg/
lpc_rms=-7.98
pitch_keycenter=a5
sample=Clarinet_bends_FF_A5.opus
</region>

<region>
hivel=127
key=b4
lovel=1
lpc=2ciqQRl2RcIs61RCZrsXwh2arEEHbkHBgH0OQaHfEsFxjApBRsPgwMjSiUAVI1bAG++zP295s0B+PCDB7XQPQd5O4sB00oNAAdWnPzLIpsA6K79Ay/VCwOxXWz+o8PY+
lpc_rms=-11.76
sample=Clarinet_bends_FF_B4.opus
</region>

<region>
hikey=b5
hivel=127
lokey=a#5
lovel=1
lpc=UYciQQ2Up8HwnddBjaGxwb2ifkHF0g3BG1cLQW8KH8EWlD1BDETGwKRnYz8jnEtAapIJv1cvrb9pk5pAYCV1wNrtXECqse2/Fd2fQA9P7MCm3CBB5SvYwPygh0DMSwi/
lpc_rms=-10.91
pitch_keycenter=b5
sample=Clarinet_bends_FF_B5.opus
</region>

<region>
hikey=c#5
hivel=127
lokey=c5
lovel=1
lpc=/p1lQdA0B8Lk3x1CDZ3wwRN5dEFsUx7AzfZ6wJo7ikAHykrARv/wPsGspz9ntw4/cSxKwMN9vkDSwgPBXSwLQRCyIMHUdTRB5OrdwBNNfD/EIn5A76uuwMmrh0DnJoO/
lpc_rms=-14.54
pitch_keycenter=c#5
sample=Clarinet_bends_FF_C#5.opus
</region>

<region>
hikey=c#6
hivel=127
lokey=c6
lovel=1
lpc=I3PFQOnHDsEmuSNBZ9fVwI0+w0B+TV/APM+mQMYHk8BtK7ZAyhi2v0Nxjr51IkFAMB9jv5Qyjj8Q+LI/0oxuPoitFz/DEbA/ILJ3PsS54j6B1Lw/IzCGvsSOX79ROHc/
lpc_rms=-15.37
pitch_keycenter=c#6
sample=Clarinet_bends_FF_C#6.opus
</region>

<region>
hikey=d#5
hivel=127
lokey=d5
lovel=1
lpc=xVY/QeqxEMKJJV9CrYBtwktKOkKWurrBBfUVQEZmA0FfLAPBlXivP7GNu0AzPc7ApXxdQAzeQMA7e+RAQ25SwXQjgkHSTkvBzUCpQMqjEUA619/Azr/eQMoyZMA9LI8/
lpc_rms=-15.52
pitch_keycenter=d#5
sample=Clarinet_bends_FF_D#5.opus
</region>

<region>
hikey=d#6
hivel=127
lokey=d6
lovel=1
lpc=aTzHQDj1DMFwMSJBOSy+wModiECWlhM/8tL7PsMNvj73kF9ADxEDwHQWQEDZhuc+FidEPyQWlz+WF6w/Za9QvwWxd0B0F8O/0LvtPwZi9L5TLJk/JIaZv8xsxT+RLr6+
lpc_rms=-12.84
pitch_keycenter=d#6
sample=Clarinet_bends_FF_D#6.opus
</region>

<region>
hikey=f5
hivel=127
lokey=e5
lovel=1
lpc=ReA5QQ1ECMJUnE1CFolQwnTRFkLTUHbB4K9PwOkfQkFACyLBQgtaP6TbAkGWaxnB7uzUQPOun8ACBwhBjklmwY6rg0GRmSbBNtr8vQqfJUEyUHDBAnRVQXMY8MCYpiFA
lpc_rms=-11.63
pitch_keycenter=f5
sample=Clarinet_bends_FF_F5.opus
</region>

<region>
hikey=g5
hivel=127
lokey=f#5
lovel=1
lpc=pGwGQSnqrsHe/PlBll8AwvQfykE8hEDBk+L/PtqpnUDvr4bAsrxDP8nQU0C8sIfAcS2SQBPytsChdwVBlP4owRtoMkELdunA6r6zPx/LlkD9sP3A+rT9QE4tq8AF/iBA
lpc_rms=-12.87
pitch_keycenter=g5
sample=Clarinet_bends_FF_G5.opus
</region>
</group>